<?xml version="1.0" encoding="utf-8"?>
<!-- Generator: Adobe Illustrator 16.0.0, SVG Export Plug-In . SVG Version: 6.00 Build 0)  -->
<!DOCTYPE svg PUBLIC "-//W3C//DTD SVG 1.1//EN" "http://www.w3.org/Graphics/SVG/1.1/DTD/svg11.dtd">
<svg version="1.1" id="图层_1" xmlns="http://www.w3.org/2000/svg" xmlns:xlink="http://www.w3.org/1999/xlink" x="0px" y="0px"
	 width="200px" height="200px" viewBox="0 0 200 200" enable-background="new 0 0 200 200" xml:space="preserve">
<path d="M139.357,152.734l24.896-25.045l-16.242,0.031V98.088h-16.645v29.664l-17.033,0.027L139.357,152.734z"/>
<path fill="#E21B1B" d="M179.3,92.568V68.89c0-12.521-10.188-22.708-22.709-22.708H99.383V41.54l-0.017-0.314
	c-0.991-9.545-9.047-16.791-18.643-16.769H30.546c-10.487,0-19.346,8.585-19.346,18.745L11.13,149.9
	c0,12.521,10.366,22.709,23.108,22.709h82.204c7.207,3.666,15.313,5.602,23.496,5.602c13.854,0,26.879-5.395,36.676-15.191
	c9.798-9.795,15.191-22.818,15.191-36.674C191.805,113.898,187.372,101.952,179.3,92.568z M139.938,163.469
	c-2.633,0-5.266-0.279-7.828-0.832l-8.61-4.063c-8.992-4.247-15.875-11.965-19.067-21.383c-1.076-3.516-1.621-7.172-1.619-10.848
	c0-20.471,16.653-37.125,37.127-37.125c3.399,0,6.772,0.463,9.949,1.354c6.377,1.976,12.096,5.659,16.53,10.651l5.327,5.995
	c3.48,5.771,5.318,12.384,5.314,19.123C177.063,146.814,160.407,163.469,139.938,163.469L139.938,163.469z M30.546,38.198h50.178
	c2.108,0,4.604,2.713,4.604,5.004v2.953c-0.02,0.476,0.057,1.559,0.664,5.677l0.05,0.343l0.128,0.323
	c1.535,3.879,4.048,6.334,7.734,7.521l1.004,0.304h61.682c4.403,0,8.566,4.164,8.566,8.567v11.857
	c-3.547-1.84-7.559-3.388-11.678-4.488c-4.679-1.372-9.527-2.069-14.402-2.07c-13.705,0-26.588,5.336-36.275,15.026
	c-9.69,9.691-15.027,22.573-15.027,36.275c-0.005,5.214,0.787,10.398,2.349,15.373c1.794,6.154,4.718,11.92,8.623,17.004H34.238
	c-4.588,0-8.767-3.797-8.767-7.971l-0.13-106.694C25.341,41.051,28.309,38.198,30.546,38.198L30.546,38.198z"/>
</svg>
