<?xml version="1.0" standalone="no"?><!DOCTYPE svg PUBLIC "-//W3C//DTD SVG 1.1//EN" "http://www.w3.org/Graphics/SVG/1.1/DTD/svg11.dtd"><svg t="1599034784062" class="icon" viewBox="0 0 1024 1024" version="1.1" xmlns="http://www.w3.org/2000/svg" p-id="12844" xmlns:xlink="http://www.w3.org/1999/xlink" width="200" height="200"><defs><style type="text/css"></style></defs><path d="M585.3952 629.98016l87.20896 0.14336v151.87456h85.21216v-151.71584l83.16928 0.15872-127.47776-128.2304z" p-id="12845"></path><path d="M918.016 473.94816V352.7168c0-64.10752-52.16256-116.26496-116.27008-116.26496H508.84096V212.6848l-0.08704-1.60768a95.744 95.744 0 0 0-95.45216-85.85728H156.39552c-53.69344 0-99.05152 43.9552-99.05152 95.9744L56.9856 767.488c0 64.10752 53.07392 116.27008 118.31296 116.27008h420.88448c36.89984 18.77504 78.40256 28.68224 120.2944 28.68224 70.93248 0 137.6256-27.6224 187.78112-77.77792 50.16064-50.15552 77.77792-116.8384 77.77792-187.77088 0-63.72864-22.69184-124.89728-64.02048-172.94336z m-201.53856 363.01312c-13.48096 0-26.9568-1.4336-40.07936-4.25984l-44.08832-20.80768a187.79136 187.79136 0 0 1-97.63328-109.47584 189.57312 189.57312 0 0 1-8.28416-55.53664c0-104.81152 85.26848-190.08 190.08512-190.08 17.41312 0 34.68288 2.37056 50.93888 6.93248a187.47392 187.47392 0 0 1 84.64384 54.53312l27.27424 30.69952a189.37344 189.37344 0 0 1 27.21792 97.91488c0.00512 104.8064-85.26848 190.08-190.07488 190.08zM156.39552 195.57376h256.91136c10.79296 0 23.57248 13.89056 23.57248 25.62048v15.11936c-0.1024 2.43712 0.29184 7.98208 3.39968 29.06624l0.256 1.75616 0.65536 1.65376c7.8592 19.86048 20.72576 32.43008 39.59808 38.50752l5.14048 1.55648h315.81184c22.54336 0 43.85792 21.31968 43.85792 43.86304v60.70784c-18.16064-9.4208-38.70208-17.34656-59.79136-22.97856a262.08256 262.08256 0 0 0-73.73824-10.5984c-70.1696 0-136.13056 27.32032-185.728 76.93312-49.6128 49.61792-76.93824 115.57376-76.93824 185.728a261.8368 261.8368 0 0 0 12.02688 78.70976 264.41728 264.41728 0 0 0 44.14976 87.06048H175.29856c-23.49056 0-44.88704-19.44064-44.88704-40.81152l-0.6656-546.27328c0-11.01312 15.19616-25.62048 26.6496-25.62048z" p-id="12846"></path></svg>