<?xml version="1.0" encoding="utf-8"?>
<!-- Generator: Adobe Illustrator 16.0.0, SVG Export Plug-In . SVG Version: 6.00 Build 0)  -->
<!DOCTYPE svg PUBLIC "-//W3C//DTD SVG 1.1//EN" "http://www.w3.org/Graphics/SVG/1.1/DTD/svg11.dtd">
<svg version="1.1" id="图层_1" xmlns="http://www.w3.org/2000/svg" xmlns:xlink="http://www.w3.org/1999/xlink" x="0px" y="0px"
	 width="200px" height="200px" viewBox="0 0 200 200" enable-background="new 0 0 200 200" xml:space="preserve">
<path stroke="#FFFFFF" stroke-width="2" stroke-miterlimit="10" d="M96.419,119.411c3.93,0,7.114-3.185,7.114-7.113l0,0V98.07
	h14.226c3.929,0,7.114-3.184,7.114-7.113c0-3.928-3.186-7.113-7.114-7.113h-14.226V69.618c0-3.929-3.185-7.113-7.114-7.113
	c-3.928,0-7.113,3.185-7.113,7.113v14.226H75.08c-3.929,0-7.113,3.186-7.113,7.114l0,0c0,3.929,3.184,7.113,7.113,7.113l0,0h14.227
	v14.227C89.306,116.227,92.491,119.41,96.419,119.411L96.419,119.411z M173.555,143.009h-29.263l-9.229-33.032
	c-1.058-3.783-4.981-5.993-8.765-4.937c-2.469,0.69-4.375,2.653-4.991,5.142l-8.98,36.251l-6.65-6.65
	c-1.334-1.338-3.144-2.09-5.032-2.09H82.859c-3.927,0-7.113,3.185-7.113,7.113c0,3.928,3.186,7.112,7.113,7.112H97.7l13.479,13.48
	c1.334,1.33,3.142,2.079,5.024,2.081c0.646,0.002,1.29-0.085,1.913-0.259c2.469-0.687,4.379-2.651,4.997-5.14l5.503-22.229
	l3.413,12.208c0.859,3.073,3.658,5.199,6.848,5.202h34.678c3.929,0,7.113-3.186,7.113-7.113c0-3.929-3.185-7.113-7.113-7.113l0,0
	V143.009z"/>
<path d="M98.66,174.752l-33.708-25.358c-14.963-11.145-24.253-28.317-25.394-46.939c-0.125-2.196-0.187-4.516-0.187-6.909
	l0.605-47.729c7.934,0.188,15.845-0.954,23.401-3.379C75.969,40.48,87.431,32.62,94.829,26.76c0.614-0.491,1.479-0.52,2.125-0.071
	c7.327,5.121,18.254,12.065,29.183,16.12c7.401,2.784,15.214,4.322,23.118,4.552l0.649,48.015c0.053,3.89,3.222,7.016,7.112,7.015
	h0.099c3.925-0.053,7.065-3.276,7.015-7.202l-0.844-63.174l-7.781,0.845c-8.297,0.756-16.655-0.416-24.425-3.423
	c-10.003-3.681-20.575-10.59-25.911-14.387c-5.816-4.047-13.597-3.813-19.161,0.578C80.69,19.825,70.18,27.392,59.11,30.842
	c-8.482,2.667-17.347,3.414-24.958,2.116l-8.198-1.369l-0.809,63.824v0.089c0,2.667,0.071,5.336,0.213,7.763
	c1.374,22.801,12.73,43.837,31.041,57.493l33.699,25.367c3.14,2.364,7.603,1.735,9.968-1.404
	C102.43,181.579,101.802,177.116,98.66,174.752L98.66,174.752L98.66,174.752z"/>
</svg>
